<svg width="25" height="25" viewBox="0 0 25 25" fill="none" xmlns="http://www.w3.org/2000/svg">
<path d="M12.5 16.3662C12.7267 16.3662 12.9167 16.2895 13.07 16.1362C13.2233 15.9829 13.3 15.7929 13.3 15.5662C13.3 15.3395 13.2233 15.1495 13.07 14.9962C12.9167 14.8429 12.7267 14.7662 12.5 14.7662C12.2733 14.7662 12.0833 14.8429 11.93 14.9962C11.7767 15.1495 11.7 15.3395 11.7 15.5662C11.7 15.7929 11.7767 15.9829 11.93 16.1362C12.0833 16.2895 12.2733 16.3662 12.5 16.3662ZM11.7 13.1662H13.3V8.36621H11.7V13.1662ZM12.5 20.3662C11.3933 20.3662 10.3533 20.1562 9.38 19.7362C8.40667 19.3162 7.56 18.7462 6.84 18.0262C6.12 17.3062 5.55 16.4595 5.13 15.4862C4.71 14.5129 4.5 13.4729 4.5 12.3662C4.5 11.2595 4.71 10.2195 5.13 9.24621C5.55 8.27288 6.12 7.42621 6.84 6.70621C7.56 5.98621 8.40667 5.41621 9.38 4.99621C10.3533 4.57621 11.3933 4.36621 12.5 4.36621C13.6067 4.36621 14.6467 4.57621 15.62 4.99621C16.5933 5.41621 17.44 5.98621 18.16 6.70621C18.88 7.42621 19.45 8.27288 19.87 9.24621C20.29 10.2195 20.5 11.2595 20.5 12.3662C20.5 13.4729 20.29 14.5129 19.87 15.4862C19.45 16.4595 18.88 17.3062 18.16 18.0262C17.44 18.7462 16.5933 19.3162 15.62 19.7362C14.6467 20.1562 13.6067 20.3662 12.5 20.3662Z" fill="#FB2C36"/>
</svg>
